<mxfile host="app.diagrams.net" agent="Mozilla/5.0 (Macintosh; Intel Mac OS X 10_15_7) AppleWebKit/537.36 (KHTML, like Gecko) Chrome/135.0.0.0 Safari/537.36" version="26.2.14">
  <diagram name="Page-1" id="OkErCemOwEuDAzPWgcps">
    <mxGraphModel dx="628" dy="2071" grid="1" gridSize="10" guides="1" tooltips="1" connect="1" arrows="1" fold="1" page="1" pageScale="1" pageWidth="827" pageHeight="1169" math="0" shadow="0">
      <root>
        <mxCell id="0" />
        <mxCell id="1" parent="0" />
        <mxCell id="hsqG3OiaDTQRq622nMc--2" value="" style="endArrow=classic;html=1;rounded=0;strokeWidth=3;" parent="1" edge="1">
          <mxGeometry width="50" height="50" relative="1" as="geometry">
            <mxPoint x="1245" y="-281" as="sourcePoint" />
            <mxPoint x="1365" y="-282" as="targetPoint" />
          </mxGeometry>
        </mxCell>
        <mxCell id="hsqG3OiaDTQRq622nMc--3" value="&lt;font style=&quot;font-size: 18px;&quot;&gt;Clk&lt;/font&gt;" style="text;html=1;align=center;verticalAlign=middle;resizable=0;points=[];autosize=1;strokeColor=none;fillColor=none;" parent="1" vertex="1">
          <mxGeometry x="1280" y="-316" width="50" height="40" as="geometry" />
        </mxCell>
        <mxCell id="hsqG3OiaDTQRq622nMc--4" value="" style="endArrow=classic;html=1;rounded=0;strokeWidth=3;" parent="1" edge="1">
          <mxGeometry width="50" height="50" relative="1" as="geometry">
            <mxPoint x="1245" y="-240" as="sourcePoint" />
            <mxPoint x="1365" y="-240" as="targetPoint" />
          </mxGeometry>
        </mxCell>
        <mxCell id="hsqG3OiaDTQRq622nMc--5" value="&lt;span style=&quot;font-size: 18px;&quot;&gt;Reset&lt;/span&gt;" style="text;html=1;align=center;verticalAlign=middle;resizable=0;points=[];autosize=1;strokeColor=none;fillColor=none;" parent="1" vertex="1">
          <mxGeometry x="1265" y="-276" width="70" height="40" as="geometry" />
        </mxCell>
        <mxCell id="hsqG3OiaDTQRq622nMc--6" value="" style="endArrow=classic;html=1;rounded=0;strokeWidth=3;" parent="1" edge="1">
          <mxGeometry width="50" height="50" relative="1" as="geometry">
            <mxPoint x="1245" y="-205" as="sourcePoint" />
            <mxPoint x="1365" y="-205" as="targetPoint" />
          </mxGeometry>
        </mxCell>
        <mxCell id="hsqG3OiaDTQRq622nMc--7" value="&lt;span style=&quot;font-size: 18px;&quot;&gt;Enable&lt;/span&gt;" style="text;html=1;align=center;verticalAlign=middle;resizable=0;points=[];autosize=1;strokeColor=none;fillColor=none;" parent="1" vertex="1">
          <mxGeometry x="1260" y="-241" width="80" height="40" as="geometry" />
        </mxCell>
        <mxCell id="XkO783uFiTBXnPvVWo0g-1" value="&lt;font style=&quot;font-size: 24px;&quot;&gt;3x3 Box Filter&lt;/font&gt;" style="rounded=0;whiteSpace=wrap;html=1;" vertex="1" parent="1">
          <mxGeometry x="1370" y="-316" width="163" height="236" as="geometry" />
        </mxCell>
        <mxCell id="XkO783uFiTBXnPvVWo0g-2" value="" style="endArrow=classic;html=1;rounded=0;strokeWidth=3;" edge="1" parent="1">
          <mxGeometry width="50" height="50" relative="1" as="geometry">
            <mxPoint x="1250" y="-141" as="sourcePoint" />
            <mxPoint x="1370" y="-142" as="targetPoint" />
          </mxGeometry>
        </mxCell>
        <mxCell id="XkO783uFiTBXnPvVWo0g-3" value="&lt;span style=&quot;font-size: 18px;&quot;&gt;[8:0] Motion_window&lt;/span&gt;" style="text;html=1;align=center;verticalAlign=middle;resizable=0;points=[];autosize=1;strokeColor=none;fillColor=none;" vertex="1" parent="1">
          <mxGeometry x="1180" y="-180" width="190" height="40" as="geometry" />
        </mxCell>
        <mxCell id="XkO783uFiTBXnPvVWo0g-4" value="" style="endArrow=classic;html=1;rounded=0;strokeWidth=3;" edge="1" parent="1">
          <mxGeometry width="50" height="50" relative="1" as="geometry">
            <mxPoint x="1540" y="-202" as="sourcePoint" />
            <mxPoint x="1660" y="-203" as="targetPoint" />
          </mxGeometry>
        </mxCell>
        <mxCell id="XkO783uFiTBXnPvVWo0g-5" value="&lt;span style=&quot;font-size: 18px;&quot;&gt;motion_detected&lt;/span&gt;" style="text;html=1;align=center;verticalAlign=middle;resizable=0;points=[];autosize=1;strokeColor=none;fillColor=none;" vertex="1" parent="1">
          <mxGeometry x="1520" y="-241" width="160" height="40" as="geometry" />
        </mxCell>
      </root>
    </mxGraphModel>
  </diagram>
</mxfile>
